<?xml version="1.0" encoding="utf-8"?>
<!-- Generator: Adobe Illustrator 18.1.1, SVG Export Plug-In . SVG Version: 6.00 Build 0)  -->
<!DOCTYPE svg PUBLIC "-//W3C//DTD SVG 1.1//EN" "http://www.w3.org/Graphics/SVG/1.1/DTD/svg11.dtd">
<svg version="1.1" id="Layer_1" xmlns="http://www.w3.org/2000/svg" xmlns:xlink="http://www.w3.org/1999/xlink" x="0px" y="0px"
	 viewBox="0 0 58.5 58.5" enable-background="new 0 0 58.5 58.5" xml:space="preserve">
<g>
	<path fill="#F13A21" d="M55.5,58.5H3c-1.7,0-3-1.3-3-3L0,3c0-1.7,1.3-3,3-3l52.5,0c1.7,0,3,1.3,3,3v52.5
		C58.5,57.1,57.1,58.5,55.5,58.5z"/>
	<path fill="#FFFFFF" d="M22.2,24.3h3v-2.9c0-1.3,0-3.3,1-4.5c1-1.3,2.4-2.2,4.7-2.2c3.8,0,5.4,0.5,5.4,0.5l-0.8,4.5
		c0,0-1.3-0.4-2.4-0.4c-1.2,0-2.2,0.4-2.2,1.6v3.4h4.8l-0.3,4.4h-4.5v15.2h-5.7V28.7h-3V24.3z"/>
</g>
</svg>
