<?xml version="1.0" encoding="utf-8"?>
<!-- Generator: Adobe Illustrator 18.1.1, SVG Export Plug-In . SVG Version: 6.00 Build 0)  -->
<!DOCTYPE svg PUBLIC "-//W3C//DTD SVG 1.1//EN" "http://www.w3.org/Graphics/SVG/1.1/DTD/svg11.dtd">
<svg version="1.1" id="Layer_1" xmlns="http://www.w3.org/2000/svg" xmlns:xlink="http://www.w3.org/1999/xlink" x="0px" y="0px"
	 viewBox="0 0 57.6 54" enable-background="new 0 0 57.6 54" xml:space="preserve">
<g>
	<path fill="#F13A21" d="M54.8,34.8c-0.1,0.1-0.2,0.2-0.2,0.3c-0.6,0.6-1,1.5-1.4,2.2c-1.3,2.1-4.7,3.1-7,3
		c-10.3-0.4-8.8-18.3-10-24.9C34.4,6.2,27.6-0.3,18,0C13.1,0.2,8.1,2.3,4.7,5.9C-2.9,14.2,0,26.3,4.5,35.3c3,6,7.6,11.3,13.5,14.7
		c0.2,0.1,0.4,0.2,0.5,0.3c2.4,1.3,5,2.3,7.7,3c12.2,2.8,28.6-2,31.3-16C57.9,35.1,56.8,32.9,54.8,34.8z"/>
	<circle fill="#FFFFFF" cx="8.5" cy="15.3" r="3.4"/>
	<circle fill="#FFFFFF" cx="19.5" cy="15.3" r="3.4"/>
	<g>
		<path fill="#FFFFFF" d="M7.4,22.7c0.2,0.2,0.3,0.4,0.5,0.7c0.8,1.1,1.6,2.1,2.6,3c0.6,0.5,1.6,0.9,2.6,1c2.4,0.2,5.4-2.1,6.5-4.6
			H7.4z"/>
	</g>
</g>
</svg>
