<?xml version="1.0" encoding="utf-8"?>
<!-- Generator: Adobe Illustrator 18.1.1, SVG Export Plug-In . SVG Version: 6.00 Build 0)  -->
<!DOCTYPE svg PUBLIC "-//W3C//DTD SVG 1.1//EN" "http://www.w3.org/Graphics/SVG/1.1/DTD/svg11.dtd">
<svg version="1.1" id="Layer_1" xmlns="http://www.w3.org/2000/svg" xmlns:xlink="http://www.w3.org/1999/xlink" x="0px" y="0px"
	 viewBox="0 0 43.1 60" enable-background="new 0 0 43.1 60" xml:space="preserve">
<path fill="#F13A21" d="M38.3,24.8h-1.9V12.6C36.4,5.7,29.7,0,21.6,0S6.7,5.7,6.7,12.6h0v12.2H4.8C2.2,24.8,0,27,0,29.6v25.5
	C0,57.8,2.2,60,4.8,60h33.5c2.6,0,4.8-2.2,4.8-4.8V29.6C43.1,27,41,24.8,38.3,24.8z M25.7,51.4h-8.4l1.7-9c-1.4-0.8-2.3-2.4-2.3-4.1
	c0-2.7,2.2-4.8,4.8-4.8c2.7,0,4.8,2.2,4.8,4.8c0,1.8-0.9,3.3-2.3,4.1L25.7,51.4z M30,24.8h-17V12.6l0,0c0-3.4,3.9-6.2,8.5-6.2
	S30,9.2,30,12.6L30,24.8z"/>
</svg>
