<?xml version="1.0" encoding="utf-8"?>
<!-- Generator: Adobe Illustrator 18.1.1, SVG Export Plug-In . SVG Version: 6.00 Build 0)  -->
<!DOCTYPE svg PUBLIC "-//W3C//DTD SVG 1.1//EN" "http://www.w3.org/Graphics/SVG/1.1/DTD/svg11.dtd">
<svg version="1.1" id="Layer_1" xmlns="http://www.w3.org/2000/svg" xmlns:xlink="http://www.w3.org/1999/xlink" x="0px" y="0px"
	 viewBox="0 0 56.1 73.4" enable-background="new 0 0 56.1 73.4" xml:space="preserve">
<g>
	<path fill="#F13A21" d="M23,52.1c0-0.2,0.1-0.4,0.1-0.6c0.1-4.4-0.1-8.7-0.8-13.1c-0.2-1.4-0.8-2.8-1.3-4.1c-1.2-2.7-2.5-5.3-3.6-8
		c-1.1-2.5-1.5-5.1-1.6-7.7c-0.1-1.4,0.7-2.4,1.9-2.6c0.5-0.1,0.9,0,1.2,0.4c0.4,0.4,0.7,0.9,1,1.4c0.6,1.2,1.2,2.4,1.8,3.6
		c0.4,0.7,0.8,1.3,1.2,1.9c0.5,0.8,1.1,1.5,1.6,2.3c1.6,2.5,3.1,5,4.6,7.5c0.1,0.1,0.2,0.2,0.3,0.4c0.1-0.2,0.2-0.3,0.2-0.4
		c-0.2-1-0.4-2.1-0.6-3.1c-0.1-0.7-0.3-1.4-0.5-2c-0.2-0.8-0.4-0.9-1.2-0.6c0-1.1,1.3-2.5,2.4-2.6c0.9-0.1,1.7,0.1,2.5,0.5
		c0.8,0.4,1.5,0.8,2.2,1.3c1.1,0.7,1.8,1.7,2.2,2.8c0.4,1,0.7,2,1,3c0.1,0.5,0.3,0.6,0.8,0.6c0.1,0,0.2,0,0.3,0
		c-0.5-1.4-1-2.8-1.5-4.3c0.2,0,0.4-0.1,0.6,0c2.3,0.3,4,1.4,5,3.5c0.4,0.7,0.6,1.5,0.9,2.3c0.1,0.3,0.2,0.4,0.5,0.4
		c0.3,0,0.5,0,0.9,0c-0.4-0.7-0.7-1.4-1.1-2.1c1.1,0.1,2.2,0.1,3,0.9c1.5,1.5,2.6,3.2,3.3,5.2c1.4,4.1,2.7,8.2,3.6,12.4
		c0.5,2.3,0.7,4.6,1,6.9c0.2,1.2,0.3,2.3,0.7,3.4c1,2.8,0.2,5.2-1.8,7.2c-1.4,1.5-3.2,2.4-5.1,3.2c-3,1.2-6.2,1.8-9.5,1.6
		c-0.7-0.1-1.4-0.2-2.1-0.3c-0.9-0.2-1.5-0.7-1.8-1.6c-0.2-0.6-0.4-1.2-0.5-1.8c-0.2-0.6-0.5-1.1-1.1-1.5c-1-0.7-2.1-1.1-3.2-1.4
		c-4.1-1.1-7.8-3.2-11.4-5.5c-0.6-0.4-1.1-1-1.5-1.7c-1-2.1-2.1-4.2-3.2-6.3c-0.7-1.4-0.9-2.8-0.4-4.3c0.2-0.6,0.4-1.3,0.7-1.8
		c0.4-0.9,0.5-1.8,0.6-2.8c0-0.5,0.1-1,0.1-1.5c0-0.8,0.7-0.9,1.2-0.8c0.9,0.3,1.8,0.7,2.3,1.5c0.5,0.8,0.9,1.7,1.1,2.5
		c0.3,0.8,0.4,1.7,0.5,2.6c0,0.1,0,0.2,0.1,0.3c0.7,1,1.3,2.1,2,3.1C22.9,52.1,23,52.1,23,52.1z"/>
	<path fill="#F13A21" d="M20.8,1.1c-0.2,0.9-0.3,2-0.5,3c-0.4,2.1-0.7,4.2-1.1,6.3c-0.1,0.7-0.6,1.1-1.2,1c-0.6-0.1-0.9-0.6-0.8-1.3
		c0.5-3,1-6.1,1.5-9.1c0-0.1,0-0.2,0.1-0.3C19,0.2,19.5-0.1,20,0C20.5,0.1,20.8,0.5,20.8,1.1z"/>
	<path fill="#F13A21" d="M10.2,16.2c-0.6-0.1-1.4-0.3-2.1-0.5c-2.4-0.5-4.8-1.1-7.2-1.6c-0.8-0.2-1.2-1-0.7-1.6
		c0.3-0.4,0.7-0.4,1.2-0.3c2.8,0.6,5.6,1.3,8.4,1.9c0.3,0.1,0.6,0.1,0.9,0.2c0.5,0.2,0.7,0.6,0.7,1.1C11.2,15.9,10.8,16.2,10.2,16.2
		z"/>
	<path fill="#F13A21" d="M7.9,3.3c0.1-0.4,0.3-0.8,0.7-0.9c0.4-0.1,0.8,0,1.1,0.3C9.7,2.8,9.8,2.9,9.9,3c1.4,2.6,2.9,5.3,4.3,7.9
		c0.1,0.2,0.2,0.3,0.2,0.5c0.1,0.4-0.1,0.9-0.5,1.1c-0.4,0.2-0.9,0.1-1.2-0.2c-0.1-0.1-0.2-0.3-0.3-0.4c-1.4-2.7-2.9-5.3-4.3-8
		C8,3.7,7.9,3.5,7.9,3.3z"/>
	<path fill="#F13A21" d="M2.7,26c-0.5,0-0.8-0.2-1-0.6c-0.2-0.4-0.1-0.8,0.2-1.1C2,24.2,2.1,24.1,2.2,24c2.6-1.7,5.2-3.3,7.8-5
		c0.4-0.3,0.8-0.3,1.2-0.1c0.6,0.4,0.6,1.2,0,1.6c-0.5,0.3-1,0.7-1.5,1c-2.1,1.4-4.3,2.7-6.4,4.1C3.1,25.8,2.9,25.9,2.7,26z"/>
	<path fill="#F13A21" d="M22.7,14.6c-0.5,0-0.9-0.2-1-0.6c-0.2-0.4-0.1-0.8,0.2-1.1c0.1-0.1,0.3-0.2,0.4-0.3c2.5-1.7,5.1-3.3,7.6-5
		c0.1-0.1,0.2-0.2,0.4-0.2c0.4-0.2,1-0.1,1.2,0.3c0.3,0.4,0.2,0.9-0.2,1.3c-0.1,0.1-0.2,0.1-0.3,0.2c-2.6,1.7-5.1,3.3-7.7,5
		C23.1,14.5,22.9,14.5,22.7,14.6z"/>
</g>
</svg>
