<?xml version="1.0" encoding="utf-8"?>
<!-- Generator: Adobe Illustrator 18.1.1, SVG Export Plug-In . SVG Version: 6.00 Build 0)  -->
<!DOCTYPE svg PUBLIC "-//W3C//DTD SVG 1.1//EN" "http://www.w3.org/Graphics/SVG/1.1/DTD/svg11.dtd">
<svg version="1.1" id="Layer_1" xmlns="http://www.w3.org/2000/svg" xmlns:xlink="http://www.w3.org/1999/xlink" x="0px" y="0px"
	 viewBox="0 0 58.5 58.5" enable-background="new 0 0 58.5 58.5" xml:space="preserve">
<g>
	<path fill="#F13A21" d="M55.5,58.5H3c-1.7,0-3-1.3-3-3L0,3c0-1.7,1.3-3,3-3l52.5,0c1.7,0,3,1.3,3,3v52.5
		C58.5,57.1,57.1,58.5,55.5,58.5z"/>
	<path fill="#FFFFFF" d="M43.9,21.6c-1.1,0.5-2.2,0.8-3.5,0.9c1.2-0.7,2.2-1.9,2.6-3.3c-1.2,0.7-2.4,1.2-3.8,1.5
		c-1.1-1.2-2.7-1.9-4.4-1.9c-3.3,0-6,2.7-6,6c0,0.5,0.1,0.9,0.2,1.4c-5-0.3-9.4-2.6-12.4-6.3c-0.5,0.9-0.8,1.9-0.8,3
		c0,2.1,1.1,3.9,2.7,5c-1,0-1.9-0.3-2.7-0.8v0.1c0,2.9,2.1,5.3,4.8,5.9c-0.5,0.1-1,0.2-1.6,0.2c-0.4,0-0.8,0-1.1-0.1
		c0.8,2.4,3,4.1,5.6,4.2C21.5,39,18.9,40,16.1,40c-0.5,0-1,0-1.4-0.1c2.7,1.7,5.8,2.7,9.2,2.7c11.1,0,17.1-9.2,17.1-17.1
		c0-0.3,0-0.5,0-0.8C42.1,23.8,43.1,22.8,43.9,21.6"/>
</g>
</svg>
